PathFileType	4	(X/Y/Z)	./resultDataOpenSim/trcMotMarkerGrf/sub06/qtm-12-02.trc
DataRate	CameraRate	NumFrames	NumMarkers	Units	OrigDataRate	OrigDataStartFrame	OrigNumFrames
250.000000	250.000000	8	24	m	250.000000	362	482
Frame#	Time	L.Toe.Tip			R.Toe.Tip			L.Ankle.Lat			R.Ankle.Lat			L.Ankle.Med			R.Ankle.Med			L.Heel			R.Heel			L.Knee.Lat			R.Knee.Lat			L.Knee.Med			R.Knee.Med			L.Thigh.Upper			R.Thigh.Upper			L.ASIS			R.ASIS			V.Sacral			L.Acromium			R.Acromium			C7			L.Elbow			R.Elbow			L.Wrist.Lat			R.Wrist.Lat
		X1	Y1	Z1	X2	Y2	Z2	X3	Y3	Z3	X4	Y4	Z4	X5	Y5	Z5	X6	Y6	Z6	X7	Y7	Z7	X8	Y8	Z8	X9	Y9	Z9	X10	Y10	Z10	X11	Y11	Z11	X12	Y12	Z12	X13	Y13	Z13	X14	Y14	Z14	X15	Y15	Z15	X16	Y16	Z16	X17	Y17	Z17	X18	Y18	Z18	X19	Y19	Z19	X20	Y20	Z20	X21	Y21	Z21	X22	Y22	Z22	X23	Y23	Z23	X24	Y24	Z24

362	1.444	1.6118273	0.13219646	-0.15745181	1.0308124	0.035426961	0.061202501	1.4865154	0.10898313	-0.17130413	0.9059615	0.095725841	0.087542869	1.4873231	0.12010851	-0.086830295	0.93289953	0.10917853	0.00088872657	1.4367981	0.046755253	-0.12619338	0.84955014	0.088215076	0.028716848	1.3820781	0.4600018	-0.14945551	1.0846836	0.44566122	0.11277991	1.3592817	0.44336219	-0.026302333	1.0568258	0.44590014	-0.016801465	1.2189752	0.81776645	-0.17692811	1.1613135	0.8027195	0.16673961	1.2788835	0.8692315	-0.12437807	1.2652128	0.85929289	0.12432119	1.0857332	0.92742342	-0.0042220545	1.1671747	1.3507667	-0.18203922	1.2144809	1.3382388	0.17326265	1.108077	1.3728666	0.0079565211	1.0620738	1.0551372	-0.22768123	1.2739367	1.0259722	0.26865173	1.1384225	0.83341675	-0.29426845	1.5104424	1.0410042	0.17930406
363	1.448	1.6239025	0.13446283	-0.15630139	1.0309595	0.035437676	0.061230706	1.4988686	0.11000929	-0.17048052	0.9069312	0.096734582	0.08786727	1.4991818	0.12096241	-0.085996028	0.93377336	0.10993484	0.0011102873	1.449731	0.047087251	-0.12566785	0.8502396	0.089769328	0.029052414	1.3894931	0.45897631	-0.14893452	1.089093	0.44499527	0.11266457	1.3656197	0.44180985	-0.025708066	1.0616326	0.44517919	-0.016987093	1.2265317	0.81616359	-0.1774357	1.1658089	0.80190244	0.16586665	1.286151	0.86784382	-0.12477561	1.2714647	0.85780839	0.12403416	1.0940017	0.92582423	-0.0060296567	1.1734241	1.3492485	-0.18259896	1.2205938	1.3369967	0.17273342	1.114171	1.3714963	0.0073465078	1.0676961	1.0542546	-0.22762163	1.2819528	1.024959	0.26824709	1.1414041	0.83197781	-0.2952748	1.517649	1.0429522	0.17756864
364	1.452	1.6355448	0.13618308	-0.15506397	1.0311062	0.035448183	0.061255118	1.5106597	0.11081761	-0.16953891	0.90786806	0.09779319	0.08818247	1.510651	0.12172162	-0.085044636	0.9346995	0.11074648	0.0013607514	1.4619677	0.047392867	-0.12503161	0.85098096	0.091396753	0.02940726	1.3970174	0.4581659	-0.14840849	1.0936145	0.44431443	0.11257103	1.3719588	0.44044841	-0.025223788	1.0665501	0.44444599	-0.017145645	1.2341036	0.81460079	-0.17791264	1.1702973	0.80100841	0.16495396	1.2934045	0.86644374	-0.12513076	1.2777507	0.85630764	0.12375342	1.1008111	0.92440555	-0.0076760007	1.1797189	1.3476996	-0.18318367	1.2267309	1.3357129	0.17219381	1.1203023	1.3701239	0.0067132449	1.0733946	1.0533164	-0.22763892	1.2904055	1.0236675	0.26800686	1.1445314	0.83051615	-0.29627679	1.5247963	1.0447696	0.17590919
365	1.456	1.6467252	0.13735309	-0.15374033	1.031243	0.03545199	0.061276324	1.5218851	0.1113718	-0.16849473	0.90872244	0.098886101	0.08848763	1.5216118	0.12233019	-0.083999577	0.9356696	0.11161673	0.0016476783	1.4735023	0.047635354	-0.12431353	0.85177861	0.093102379	0.02979009	1.4046693	0.45754548	-0.14788086	1.0982556	0.44361843	0.11249561	1.3783382	0.43927366	-0.024839181	1.071572	0.44370262	-0.017278435	1.2416917	0.81308807	-0.17836638	1.1751308	0.79991727	0.16409437	1.3006619	0.86502728	-0.12545441	1.284039	0.85480334	0.12347114	1.1059954	0.92318992	-0.0088775812	1.1860593	1.3461256	-0.18379942	1.2328815	1.3343886	0.17164712	1.1264676	1.3687661	0.0060660245	1.0791019	1.0523307	-0.22784378	1.2992445	1.0221037	0.26792479	1.147804	0.82902731	-0.29727911	1.5318893	1.0464407	0.17432735
366	1.46	1.6574013	0.1380036	-0.15232748	1.0313756	0.035454957	0.0613014	1.5325415	0.1116456	-0.16737157	0.90956987	0.10001796	0.088804213	1.5320078	0.12274781	-0.08289249	0.93668074	0.11254737	0.0019747254	1.4843487	0.047765886	-0.12346346	0.85263475	0.094891522	0.03020974	1.41247	0.45706681	-0.147366	1.1030026	0.44290751	0.11243442	1.3848301	0.43828538	-0.02452408	1.0766906	0.44294596	-0.017390193	1.2492884	0.81163102	-0.17880533	1.1804369	0.79867487	0.16332981	1.307949	0.86358904	-0.12576155	1.2902855	0.85331791	0.12319562	1.1107527	0.92200851	-0.0098336634	1.1924453	1.344529	-0.18444876	1.2390116	1.3330332	0.17109513	1.1326601	1.3674433	0.0054123767	1.0848167	1.0513029	-0.22822327	1.3080298	1.020454	0.26784301	1.1512234	0.82751445	-0.29828497	1.5389091	1.0479435	0.17281784
367	1.464	1.6675423	0.13817549	-0.15081982	1.0315163	0.035467855	0.061336055	1.5426591	0.11162569	-0.16620235	0.91053422	0.10120401	0.089148557	1.5418245	0.12293204	-0.081755051	0.93774047	0.11353547	0.0023397284	1.4945406	0.04771251	-0.12237838	0.85355193	0.096767022	0.030667683	1.4204046	0.4566661	-0.14687631	1.1078487	0.44217847	0.11238473	1.3914933	0.43747998	-0.024240747	1.0819059	0.44216507	-0.017485312	1.2568759	0.81023609	-0.17923865	1.1860923	0.79738498	0.16263278	1.3152943	0.86212289	-0.12605877	1.2964866	0.85186784	0.12294462	1.1161651	0.92073653	-0.010848814	1.1988738	1.342912	-0.18512857	1.2450859	1.3316605	0.17053648	1.1388778	1.36615	0.0047453505	1.0905901	1.0502223	-0.2286713	1.3162753	1.0189195	0.26758235	1.1547894	0.82598434	-0.29929779	1.545825	1.0492617	0.1713716
368	1.468	1.6771289	0.13790451	-0.14920748	1.0316703	0.035494258	0.061381293	1.5522911	0.11131314	-0.16501947	0.91167889	0.10244872	0.089518055	1.5510713	0.12284603	-0.080604809	0.93886365	0.11457377	0.0027365191	1.5040989	0.047409223	-0.12102916	0.8545358	0.098727356	0.031153855	1.4284034	0.45627499	-0.14640665	1.1128126	0.44142553	0.11234768	1.3983573	0.43683998	-0.023959953	1.0872244	0.44134795	-0.017567312	1.264437	0.8089132	-0.1796822	1.1919198	0.79609832	0.16195228	1.3227022	0.86063141	-0.12635011	1.3028187	0.85043972	0.12269257	1.1227337	0.91933626	-0.012060135	1.2053431	1.3412778	-0.18583638	1.2511074	1.3302788	0.16996924	1.1451295	1.3648459	0.0040430201	1.0964701	1.0490782	-0.22909962	1.3238424	1.0175382	0.26709395	1.1585025	0.82444213	-0.30031943	1.5526256	1.0503918	0.16998246
369	1.472	1.6861543	0.13721414	-0.14747963	1.0318362	0.035530565	0.061436338	1.561456	0.11071457	-0.16383757	0.9129804	0.10374718	0.089904857	1.5597634	0.12246882	-0.079442428	0.94006265	0.11565633	0.0031597449	1.5130079	0.046838582	-0.11955541	0.85559701	0.10076694	0.031652816	1.4363899	0.4558332	-0.14594003	1.1179219	0.44064276	0.11232414	1.4054107	0.43632663	-0.023669213	1.092649	0.44049024	-0.017638668	1.271963	0.80767162	-0.18015882	1.1978283	0.79481818	0.16125429	1.3301398	0.85912996	-0.12665029	1.3097967	0.84897283	0.12231932	1.1306873	0.91777893	-0.013495214	1.2118545	1.3396277	-0.18657568	1.2571313	1.3288847	0.16939415	1.1514265	1.3634949	0.0032906	1.1024555	1.0478931	-0.22952618	1.330897	1.0162286	0.26644131	1.1623694	0.82289087	-0.3013506	1.5593248	1.0513358	0.16865433
